<svg width="1050" height="2268" viewBox="0 0 1050 2268" class="keymap" xmlns="http://www.w3.org/2000/svg" xmlns:xlink="http://www.w3.org/1999/xlink">
<defs>/* start glyphs */
<svg id="mdi:alpha-w-box">
<svg xmlns="http://www.w3.org/2000/svg" id="mdi-alpha-w-box" viewBox="0 0 24 24"><path d="M9,17H15A2,2 0 0,0 17,15V7H15V15H13V8H11V15H9V7H7V15A2,2 0 0,0 9,17M5,3H19A2,2 0 0,1 21,5V19A2,2 0 0,1 19,21H5A2,2 0 0,1 3,19V5A2,2 0 0,1 5,3Z" /></svg>
</svg>
<svg id="mdi:backup-restore">
<svg xmlns="http://www.w3.org/2000/svg" id="mdi-backup-restore" viewBox="0 0 24 24"><path d="M12,3A9,9 0 0,0 3,12H0L4,16L8,12H5A7,7 0 0,1 12,5A7,7 0 0,1 19,12A7,7 0 0,1 12,19C10.5,19 9.09,18.5 7.94,17.7L6.5,19.14C8.04,20.3 9.94,21 12,21A9,9 0 0,0 21,12A9,9 0 0,0 12,3M14,12A2,2 0 0,0 12,10A2,2 0 0,0 10,12A2,2 0 0,0 12,14A2,2 0 0,0 14,12Z" /></svg>
</svg>
<svg id="mdi:progress-download">
<svg xmlns="http://www.w3.org/2000/svg" id="mdi-progress-download" viewBox="0 0 24 24"><path d="M13,2.03C17.73,2.5 21.5,6.25 21.95,11C22.5,16.5 18.5,21.38 13,21.93V19.93C16.64,19.5 19.5,16.61 19.96,12.97C20.5,8.58 17.39,4.59 13,4.05V2.05L13,2.03M11,2.06V4.06C9.57,4.26 8.22,4.84 7.1,5.74L5.67,4.26C7.19,3 9.05,2.25 11,2.06M4.26,5.67L5.69,7.1C4.8,8.23 4.24,9.58 4.05,11H2.05C2.25,9.04 3,7.19 4.26,5.67M2.06,13H4.06C4.24,14.42 4.81,15.77 5.69,16.9L4.27,18.33C3.03,16.81 2.26,14.96 2.06,13M7.1,18.37C8.23,19.25 9.58,19.82 11,20V22C9.04,21.79 7.18,21 5.67,19.74L7.1,18.37M12,16.5L7.5,12H11V8H13V12H16.5L12,16.5Z" /></svg>
</svg>
</defs>/* end glyphs */
<style>/* inherit to force styles through use tags */
svg path {
    fill: inherit;
}

/* font and background color specifications */
svg.keymap {
    font-family: SFMono-Regular,Consolas,Liberation Mono,Menlo,monospace;
    font-size: 14px;
    font-kerning: normal;
    text-rendering: optimizeLegibility;
    fill: #24292e;
}

/* default key styling */
rect.key {
    fill: #f6f8fa;
}

rect.key, rect.combo {
    stroke: #c9cccf;
    stroke-width: 1;
}

/* default key side styling, only used is draw_key_sides is set */
rect.side {
    filter: brightness(90%);
}

/* color accent for combo boxes */
rect.combo, rect.combo-separate {
    fill: #cdf;
}

/* color accent for held keys */
rect.held, rect.combo.held {
    fill: #fdd;
}

/* color accent for ghost (optional) keys */
rect.ghost, rect.combo.ghost {
    stroke-dasharray: 4, 4;
    stroke-width: 2;
}

text {
    text-anchor: middle;
    dominant-baseline: middle;
}

/* styling for layer labels */
text.label {
    font-weight: bold;
    text-anchor: start;
    stroke: white;
    stroke-width: 4;
    paint-order: stroke;
}

/* styling for optional footer */
text.footer {
    text-anchor: end;
    dominant-baseline: auto;
    stroke: white;
    stroke-width: 4;
    paint-order: stroke;
}

/* styling for combo tap, and key hold/shifted label text */
text.combo, text.hold, text.shifted {
    font-size: 11px;
}

text.hold {
    text-anchor: middle;
    dominant-baseline: auto;
}

text.shifted {
    text-anchor: middle;
    dominant-baseline: hanging;
}

/* styling for hold/shifted label text in combo box */
text.combo.hold, text.combo.shifted {
    font-size: 8px;
}

/* lighter symbol for transparent keys */
text.trans {
    fill: #7b7e81;
}

/* styling for combo dendrons */
path.combo {
    stroke-width: 1;
    stroke: gray;
    fill: none;
}

/* Start Tabler Icons Cleanup */
/* cannot use height/width with glyphs */
.icon-tabler > path {
    fill: inherit;
    stroke: inherit;
    stroke-width: 2;
}
/* hide tabler's default box */
.icon-tabler > path[stroke="none"][fill="none"] {
    visibility: hidden;
}
/* End Tabler Icons Cleanup */
</style>
<g transform="translate(0, 0)" class="layer-default">
<text x="0" y="0" class="label">default:</text>
<g transform="translate(0, 0)">
<g transform="translate(40, 130)" class="key keypos-0">
<rect rx="4" ry="4" x="-38" y="-38" width="77" height="77" class="key"/>
<text x="0" y="0" class="key tap">Q</text>
<text x="0" y="34" class="key hold"><tspan style="font-size: 70%">bt_control</tspan></text>
</g>
<g transform="translate(120, 90)" class="key keypos-1">
<rect rx="4" ry="4" x="-38" y="-38" width="77" height="77" class="key"/>
<text x="0" y="0" class="key tap">W</text>
</g>
<g transform="translate(200, 40)" class="key keypos-2">
<rect rx="4" ry="4" x="-38" y="-38" width="77" height="77" class="key"/>
<text x="0" y="0" class="key tap">F</text>
</g>
<g transform="translate(280, 60)" class="key keypos-3">
<rect rx="4" ry="4" x="-38" y="-38" width="77" height="77" class="key"/>
<text x="0" y="0" class="key tap">P</text>
</g>
<g transform="translate(360, 70)" class="key keypos-4">
<rect rx="4" ry="4" x="-38" y="-38" width="77" height="77" class="key"/>
<text x="0" y="0" class="key tap">B</text>
</g>
<g transform="translate(690, 70)" class="key keypos-5">
<rect rx="4" ry="4" x="-38" y="-38" width="77" height="77" class="key"/>
<text x="0" y="0" class="key tap">J</text>
</g>
<g transform="translate(770, 60)" class="key keypos-6">
<rect rx="4" ry="4" x="-38" y="-38" width="77" height="77" class="key"/>
<text x="0" y="0" class="key tap">L</text>
</g>
<g transform="translate(850, 40)" class="key keypos-7">
<rect rx="4" ry="4" x="-38" y="-38" width="77" height="77" class="key"/>
<text x="0" y="0" class="key tap">U</text>
</g>
<g transform="translate(930, 90)" class="key keypos-8">
<rect rx="4" ry="4" x="-38" y="-38" width="77" height="77" class="key"/>
<text x="0" y="0" class="key tap">Y</text>
</g>
<g transform="translate(1010, 130)" class="key keypos-9">
<rect rx="4" ry="4" x="-38" y="-38" width="77" height="77" class="key"/>
<text x="0" y="0" class="key tap">;</text>
<text x="0" y="34" class="key hold"><tspan style="font-size: 70%">bt_control</tspan></text>
</g>
<g transform="translate(40, 210)" class="key keypos-10">
<rect rx="4" ry="4" x="-38" y="-38" width="77" height="77" class="key"/>
<text x="0" y="0" class="key tap">A</text>
<text x="0" y="34" class="key hold">LGUI</text>
</g>
<g transform="translate(120, 170)" class="key keypos-11">
<rect rx="4" ry="4" x="-38" y="-38" width="77" height="77" class="key"/>
<text x="0" y="0" class="key tap">R</text>
<text x="0" y="34" class="key hold">LALT</text>
</g>
<g transform="translate(200, 120)" class="key keypos-12">
<rect rx="4" ry="4" x="-38" y="-38" width="77" height="77" class="key"/>
<text x="0" y="0" class="key tap">S</text>
<text x="0" y="34" class="key hold">LCTRL</text>
</g>
<g transform="translate(280, 140)" class="key keypos-13">
<rect rx="4" ry="4" x="-38" y="-38" width="77" height="77" class="key"/>
<text x="0" y="0" class="key tap">T</text>
<text x="0" y="34" class="key hold">LSHFT</text>
</g>
<g transform="translate(360, 150)" class="key keypos-14">
<rect rx="4" ry="4" x="-38" y="-38" width="77" height="77" class="key"/>
<text x="0" y="0" class="key tap">G</text>
</g>
<g transform="translate(690, 150)" class="key keypos-15">
<rect rx="4" ry="4" x="-38" y="-38" width="77" height="77" class="key"/>
<text x="0" y="0" class="key tap">M</text>
</g>
<g transform="translate(770, 140)" class="key keypos-16">
<rect rx="4" ry="4" x="-38" y="-38" width="77" height="77" class="key"/>
<text x="0" y="0" class="key tap">N</text>
<text x="0" y="34" class="key hold">RSHFT</text>
</g>
<g transform="translate(850, 120)" class="key keypos-17">
<rect rx="4" ry="4" x="-38" y="-38" width="77" height="77" class="key"/>
<text x="0" y="0" class="key tap">E</text>
<text x="0" y="34" class="key hold">RCTRL</text>
</g>
<g transform="translate(930, 170)" class="key keypos-18">
<rect rx="4" ry="4" x="-38" y="-38" width="77" height="77" class="key"/>
<text x="0" y="0" class="key tap">I</text>
<text x="0" y="34" class="key hold">RALT</text>
</g>
<g transform="translate(1010, 210)" class="key keypos-19">
<rect rx="4" ry="4" x="-38" y="-38" width="77" height="77" class="key"/>
<text x="0" y="0" class="key tap">O</text>
<text x="0" y="34" class="key hold">RGUI</text>
</g>
<g transform="translate(40, 290)" class="key keypos-20">
<rect rx="4" ry="4" x="-38" y="-38" width="77" height="77" class="key"/>
<text x="0" y="0" class="key tap">Z</text>
<text x="0" y="34" class="key hold">func</text>
</g>
<g transform="translate(120, 250)" class="key keypos-21">
<rect rx="4" ry="4" x="-38" y="-38" width="77" height="77" class="key"/>
<text x="0" y="0" class="key tap">X</text>
</g>
<g transform="translate(200, 200)" class="key keypos-22">
<rect rx="4" ry="4" x="-38" y="-38" width="77" height="77" class="key"/>
<text x="0" y="0" class="key tap">C</text>
</g>
<g transform="translate(280, 220)" class="key keypos-23">
<rect rx="4" ry="4" x="-38" y="-38" width="77" height="77" class="key"/>
<text x="0" y="0" class="key tap">D</text>
</g>
<g transform="translate(360, 230)" class="key keypos-24">
<rect rx="4" ry="4" x="-38" y="-38" width="77" height="77" class="key"/>
<text x="0" y="0" class="key tap">V</text>
</g>
<g transform="translate(690, 230)" class="key keypos-25">
<rect rx="4" ry="4" x="-38" y="-38" width="77" height="77" class="key"/>
<text x="0" y="0" class="key tap">K</text>
</g>
<g transform="translate(770, 220)" class="key keypos-26">
<rect rx="4" ry="4" x="-38" y="-38" width="77" height="77" class="key"/>
<text x="0" y="0" class="key tap">H</text>
</g>
<g transform="translate(850, 200)" class="key keypos-27">
<rect rx="4" ry="4" x="-38" y="-38" width="77" height="77" class="key"/>
<text x="0" y="0" class="key tap">,</text>
</g>
<g transform="translate(930, 250)" class="key keypos-28">
<rect rx="4" ry="4" x="-38" y="-38" width="77" height="77" class="key"/>
<text x="0" y="0" class="key tap">.</text>
</g>
<g transform="translate(1010, 290)" class="key keypos-29">
<rect rx="4" ry="4" x="-38" y="-38" width="77" height="77" class="key"/>
<text x="0" y="0" class="key tap">/</text>
<text x="0" y="34" class="key hold">media</text>
</g>
<g transform="translate(280, 338)" class="key keypos-30">
<rect rx="4" ry="4" x="-38" y="-38" width="77" height="77" class="key"/>
</g>
<g transform="translate(360, 338)" class="key keypos-31">
<rect rx="4" ry="4" x="-38" y="-38" width="77" height="77" class="key"/>
<text x="0" y="0" class="key tap">ESC</text>
<text x="0" y="34" class="key hold">nav</text>
</g>
<g transform="translate(440, 338)" class="key keypos-32">
<rect rx="4" ry="4" x="-38" y="-38" width="77" height="77" class="key"/>
<text x="0" y="0" class="key tap">SPACE</text>
</g>
<g transform="translate(680, 338)" class="key keypos-33">
<rect rx="4" ry="4" x="-38" y="-38" width="77" height="77" class="key"/>
<text x="0" y="0" class="key tap">RET</text>
<text x="0" y="34" class="key hold">code</text>
</g>
<g transform="translate(760, 338)" class="key keypos-34">
<rect rx="4" ry="4" x="-38" y="-38" width="77" height="77" class="key"/>
<text x="0" y="0" class="key tap">BSPC</text>
</g>
<g class="combo combopos-0">
<rect rx="4" ry="4" x="872" y="207" width="36" height="36" class="combo"/>
<text x="890" y="225" class="combo tap">_</text>
</g>
<g class="combo combopos-1">
<rect rx="4" ry="4" x="792" y="192" width="36" height="36" class="combo"/>
<text x="810" y="210" class="combo tap">-</text>
</g>
<g class="combo combopos-2">
<path d="M525,90 l-378,0" class="combo"/>
<path d="M525,90 l378,0" class="combo"/>
<rect rx="4" ry="4" x="507" y="72" width="36" height="36" class="combo"/>
<text x="525" y="90" class="combo tap">TAB</text>
</g>
<g class="combo combopos-3">
<path d="M525,40 l-298,0" class="combo"/>
<path d="M525,40 l298,0" class="combo"/>
<rect rx="4" ry="4" x="507" y="22" width="36" height="36" class="combo"/>
<text x="525" y="40" class="combo tap">&#x27;</text>
</g>
<g class="combo combopos-4">
<path d="M525,60 l-218,0" class="combo"/>
<path d="M525,60 l218,0" class="combo"/>
<rect rx="4" ry="4" x="507" y="42" width="36" height="36" class="combo"/>
<text x="525" y="60" class="combo tap">&quot;</text>
</g>
<g class="combo combopos-5">
<path d="M525,220 l-218,0" class="combo"/>
<path d="M525,220 l218,0" class="combo"/>
<rect rx="4" ry="4" x="507" y="202" width="36" height="36" class="combo"/>
<use href="#mdi:alpha-w-box" xlink:href="#mdi:alpha-w-box" x="518" y="213" height="14" width="14.0" class="combo tap glyph mdi:alpha-w-box"/>
</g>
<g class="combo combopos-6">
<path d="M525,140 l-218,0" class="combo"/>
<path d="M525,140 l218,0" class="combo"/>
<rect rx="4" ry="4" x="507" y="122" width="36" height="36" class="combo"/>
<text x="525" y="140" class="combo tap"><tspan style="font-size: 64%">&amp;skinny_ar…</tspan></text>
</g>
<g class="combo combopos-7">
<path d="M525,150 l-138,0" class="combo"/>
<path d="M525,150 l138,0" class="combo"/>
<rect rx="4" ry="4" x="507" y="132" width="36" height="36" class="combo"/>
<text x="525" y="150" class="combo tap"><tspan style="font-size: 78%">&amp;pipe_opr</tspan></text>
</g>
<g class="combo combopos-8">
<path d="M240,214 l-101,-105" class="combo"/>
<path d="M240,214 l101,105" class="combo"/>
<rect rx="4" ry="4" x="222" y="196" width="36" height="36" class="combo"/>
<text x="240" y="214" class="combo tap">
<tspan x="240" dy="-0.5em">VIM</tspan><tspan x="240" dy="1.0em">SAVE</tspan>
</text>
</g>
<g class="combo combopos-9">
<path d="M633,133 l-327,6" class="combo"/>
<path d="M633,133 l110,5" class="combo"/>
<path d="M633,133 l190,-12" class="combo"/>
<rect rx="4" ry="4" x="615" y="115" width="36" height="36" class="combo"/>
<text x="633" y="133" class="combo tap"><tspan style="font-size: 70%">&amp;fat_arrow</tspan></text>
</g>
</g>
</g>
<g transform="translate(0, 378)" class="layer-code">
<text x="0" y="0" class="label">code:</text>
<g transform="translate(0, 0)">
<g transform="translate(40, 130)" class="key keypos-0">
<rect rx="4" ry="4" x="-38" y="-38" width="77" height="77" class="key"/>
<text x="0" y="0" class="key tap">*</text>
</g>
<g transform="translate(120, 90)" class="key keypos-1">
<rect rx="4" ry="4" x="-38" y="-38" width="77" height="77" class="key"/>
<text x="0" y="0" class="key tap">7</text>
</g>
<g transform="translate(200, 40)" class="key keypos-2">
<rect rx="4" ry="4" x="-38" y="-38" width="77" height="77" class="key"/>
<text x="0" y="0" class="key tap">8</text>
</g>
<g transform="translate(280, 60)" class="key keypos-3">
<rect rx="4" ry="4" x="-38" y="-38" width="77" height="77" class="key"/>
<text x="0" y="0" class="key tap">9</text>
</g>
<g transform="translate(360, 70)" class="key keypos-4">
<rect rx="4" ry="4" x="-38" y="-38" width="77" height="77" class="key"/>
<text x="0" y="0" class="key tap">/</text>
</g>
<g transform="translate(690, 70)" class="key keypos-5">
<rect rx="4" ry="4" x="-38" y="-38" width="77" height="77" class="key"/>
<text x="0" y="0" class="key tap">\</text>
</g>
<g transform="translate(770, 60)" class="key keypos-6">
<rect rx="4" ry="4" x="-38" y="-38" width="77" height="77" class="key"/>
<text x="0" y="0" class="key tap">(</text>
</g>
<g transform="translate(850, 40)" class="key keypos-7">
<rect rx="4" ry="4" x="-38" y="-38" width="77" height="77" class="key"/>
<text x="0" y="0" class="key tap">)</text>
</g>
<g transform="translate(930, 90)" class="key keypos-8">
<rect rx="4" ry="4" x="-38" y="-38" width="77" height="77" class="key"/>
<text x="0" y="0" class="key tap">|</text>
</g>
<g transform="translate(1010, 130)" class="key trans keypos-9">
<rect rx="4" ry="4" x="-38" y="-38" width="77" height="77" class="key trans"/>
<text x="0" y="0" class="key trans tap">▽</text>
</g>
<g transform="translate(40, 210)" class="key keypos-10">
<rect rx="4" ry="4" x="-38" y="-38" width="77" height="77" class="key"/>
<text x="0" y="0" class="key tap">-</text>
</g>
<g transform="translate(120, 170)" class="key keypos-11">
<rect rx="4" ry="4" x="-38" y="-38" width="77" height="77" class="key"/>
<text x="0" y="0" class="key tap">4</text>
</g>
<g transform="translate(200, 120)" class="key keypos-12">
<rect rx="4" ry="4" x="-38" y="-38" width="77" height="77" class="key"/>
<text x="0" y="0" class="key tap">5</text>
</g>
<g transform="translate(280, 140)" class="key keypos-13">
<rect rx="4" ry="4" x="-38" y="-38" width="77" height="77" class="key"/>
<text x="0" y="0" class="key tap">6</text>
<text x="0" y="34" class="key hold">LSHFT</text>
</g>
<g transform="translate(360, 150)" class="key keypos-14">
<rect rx="4" ry="4" x="-38" y="-38" width="77" height="77" class="key"/>
<text x="0" y="0" class="key tap">+</text>
</g>
<g transform="translate(690, 150)" class="key keypos-15">
<rect rx="4" ry="4" x="-38" y="-38" width="77" height="77" class="key"/>
<text x="0" y="0" class="key tap">%</text>
</g>
<g transform="translate(770, 140)" class="key keypos-16">
<rect rx="4" ry="4" x="-38" y="-38" width="77" height="77" class="key"/>
<text x="0" y="0" class="key tap">{</text>
<text x="0" y="34" class="key hold">RSHFT</text>
</g>
<g transform="translate(850, 120)" class="key keypos-17">
<rect rx="4" ry="4" x="-38" y="-38" width="77" height="77" class="key"/>
<text x="0" y="0" class="key tap">}</text>
<text x="0" y="34" class="key hold">RCTRL</text>
</g>
<g transform="translate(930, 170)" class="key keypos-18">
<rect rx="4" ry="4" x="-38" y="-38" width="77" height="77" class="key"/>
<text x="0" y="0" class="key tap">:</text>
<text x="0" y="34" class="key hold">RALT</text>
</g>
<g transform="translate(1010, 210)" class="key keypos-19">
<rect rx="4" ry="4" x="-38" y="-38" width="77" height="77" class="key"/>
<text x="0" y="0" class="key tap">;</text>
<text x="0" y="34" class="key hold">RGUI</text>
</g>
<g transform="translate(40, 290)" class="key keypos-20">
<rect rx="4" ry="4" x="-38" y="-38" width="77" height="77" class="key"/>
<text x="0" y="0" class="key tap">`</text>
</g>
<g transform="translate(120, 250)" class="key keypos-21">
<rect rx="4" ry="4" x="-38" y="-38" width="77" height="77" class="key"/>
<text x="0" y="0" class="key tap">1</text>
</g>
<g transform="translate(200, 200)" class="key keypos-22">
<rect rx="4" ry="4" x="-38" y="-38" width="77" height="77" class="key"/>
<text x="0" y="0" class="key tap">2</text>
</g>
<g transform="translate(280, 220)" class="key keypos-23">
<rect rx="4" ry="4" x="-38" y="-38" width="77" height="77" class="key"/>
<text x="0" y="0" class="key tap">3</text>
</g>
<g transform="translate(360, 230)" class="key keypos-24">
<rect rx="4" ry="4" x="-38" y="-38" width="77" height="77" class="key"/>
<text x="0" y="0" class="key tap">=</text>
</g>
<g transform="translate(690, 230)" class="key keypos-25">
<rect rx="4" ry="4" x="-38" y="-38" width="77" height="77" class="key"/>
<text x="0" y="0" class="key tap">[</text>
</g>
<g transform="translate(770, 220)" class="key keypos-26">
<rect rx="4" ry="4" x="-38" y="-38" width="77" height="77" class="key"/>
<text x="0" y="0" class="key tap">]</text>
</g>
<g transform="translate(850, 200)" class="key trans keypos-27">
<rect rx="4" ry="4" x="-38" y="-38" width="77" height="77" class="key trans"/>
<text x="0" y="0" class="key trans tap">▽</text>
</g>
<g transform="translate(930, 250)" class="key trans keypos-28">
<rect rx="4" ry="4" x="-38" y="-38" width="77" height="77" class="key trans"/>
<text x="0" y="0" class="key trans tap">▽</text>
</g>
<g transform="translate(1010, 290)" class="key trans keypos-29">
<rect rx="4" ry="4" x="-38" y="-38" width="77" height="77" class="key trans"/>
<text x="0" y="0" class="key trans tap">▽</text>
</g>
<g transform="translate(280, 338)" class="key keypos-30">
<rect rx="4" ry="4" x="-38" y="-38" width="77" height="77" class="key"/>
</g>
<g transform="translate(360, 338)" class="key keypos-31">
<rect rx="4" ry="4" x="-38" y="-38" width="77" height="77" class="key"/>
<text x="0" y="0" class="key tap">0</text>
</g>
<g transform="translate(440, 338)" class="key trans keypos-32">
<rect rx="4" ry="4" x="-38" y="-38" width="77" height="77" class="key trans"/>
<text x="0" y="0" class="key trans tap">▽</text>
</g>
<g transform="translate(680, 338)" class="key held keypos-33">
<rect rx="4" ry="4" x="-38" y="-38" width="77" height="77" class="key held"/>
</g>
<g transform="translate(760, 338)" class="key trans keypos-34">
<rect rx="4" ry="4" x="-38" y="-38" width="77" height="77" class="key trans"/>
<text x="0" y="0" class="key trans tap">▽</text>
</g>
</g>
</g>
<g transform="translate(0, 756)" class="layer-nav">
<text x="0" y="0" class="label">nav:</text>
<g transform="translate(0, 0)">
<g transform="translate(40, 130)" class="key keypos-0">
<rect rx="4" ry="4" x="-38" y="-38" width="77" height="77" class="key"/>
</g>
<g transform="translate(120, 90)" class="key keypos-1">
<rect rx="4" ry="4" x="-38" y="-38" width="77" height="77" class="key"/>
</g>
<g transform="translate(200, 40)" class="key keypos-2">
<rect rx="4" ry="4" x="-38" y="-38" width="77" height="77" class="key"/>
</g>
<g transform="translate(280, 60)" class="key keypos-3">
<rect rx="4" ry="4" x="-38" y="-38" width="77" height="77" class="key"/>
</g>
<g transform="translate(360, 70)" class="key trans keypos-4">
<rect rx="4" ry="4" x="-38" y="-38" width="77" height="77" class="key trans"/>
<text x="0" y="0" class="key trans tap">▽</text>
</g>
<g transform="translate(690, 70)" class="key keypos-5">
<rect rx="4" ry="4" x="-38" y="-38" width="77" height="77" class="key"/>
</g>
<g transform="translate(770, 60)" class="key keypos-6">
<rect rx="4" ry="4" x="-38" y="-38" width="77" height="77" class="key"/>
</g>
<g transform="translate(850, 40)" class="key keypos-7">
<rect rx="4" ry="4" x="-38" y="-38" width="77" height="77" class="key"/>
</g>
<g transform="translate(930, 90)" class="key trans keypos-8">
<rect rx="4" ry="4" x="-38" y="-38" width="77" height="77" class="key trans"/>
<text x="0" y="0" class="key trans tap">▽</text>
</g>
<g transform="translate(1010, 130)" class="key keypos-9">
<rect rx="4" ry="4" x="-38" y="-38" width="77" height="77" class="key"/>
</g>
<g transform="translate(40, 210)" class="key keypos-10">
<rect rx="4" ry="4" x="-38" y="-38" width="77" height="77" class="key"/>
<text x="0" y="0" class="key tap">LGUI</text>
</g>
<g transform="translate(120, 170)" class="key keypos-11">
<rect rx="4" ry="4" x="-38" y="-38" width="77" height="77" class="key"/>
<text x="0" y="0" class="key tap">LALT</text>
</g>
<g transform="translate(200, 120)" class="key keypos-12">
<rect rx="4" ry="4" x="-38" y="-38" width="77" height="77" class="key"/>
<text x="0" y="0" class="key tap">LCTRL</text>
</g>
<g transform="translate(280, 140)" class="key keypos-13">
<rect rx="4" ry="4" x="-38" y="-38" width="77" height="77" class="key"/>
<text x="0" y="0" class="key tap">LSHFT</text>
</g>
<g transform="translate(360, 150)" class="key trans keypos-14">
<rect rx="4" ry="4" x="-38" y="-38" width="77" height="77" class="key trans"/>
<text x="0" y="0" class="key trans tap">▽</text>
</g>
<g transform="translate(690, 150)" class="key keypos-15">
<rect rx="4" ry="4" x="-38" y="-38" width="77" height="77" class="key"/>
</g>
<g transform="translate(770, 140)" class="key keypos-16">
<rect rx="4" ry="4" x="-38" y="-38" width="77" height="77" class="key"/>
<text x="0" y="0" class="key tap">LEFT</text>
</g>
<g transform="translate(850, 120)" class="key keypos-17">
<rect rx="4" ry="4" x="-38" y="-38" width="77" height="77" class="key"/>
<text x="0" y="0" class="key tap">DOWN</text>
</g>
<g transform="translate(930, 170)" class="key keypos-18">
<rect rx="4" ry="4" x="-38" y="-38" width="77" height="77" class="key"/>
<text x="0" y="0" class="key tap">UP</text>
</g>
<g transform="translate(1010, 210)" class="key keypos-19">
<rect rx="4" ry="4" x="-38" y="-38" width="77" height="77" class="key"/>
<text x="0" y="0" class="key tap">RIGHT</text>
</g>
<g transform="translate(40, 290)" class="key trans keypos-20">
<rect rx="4" ry="4" x="-38" y="-38" width="77" height="77" class="key trans"/>
<text x="0" y="0" class="key trans tap">▽</text>
</g>
<g transform="translate(120, 250)" class="key trans keypos-21">
<rect rx="4" ry="4" x="-38" y="-38" width="77" height="77" class="key trans"/>
<text x="0" y="0" class="key trans tap">▽</text>
</g>
<g transform="translate(200, 200)" class="key keypos-22">
<rect rx="4" ry="4" x="-38" y="-38" width="77" height="77" class="key"/>
<text x="0" y="0" class="key tap">
<tspan x="0" dy="-0.5em">Gui+</tspan><tspan x="0" dy="1.0em">COPY</tspan>
</text>
</g>
<g transform="translate(280, 220)" class="key keypos-23">
<rect rx="4" ry="4" x="-38" y="-38" width="77" height="77" class="key"/>
<text x="0" y="0" class="key tap">PASTE</text>
</g>
<g transform="translate(360, 230)" class="key trans keypos-24">
<rect rx="4" ry="4" x="-38" y="-38" width="77" height="77" class="key trans"/>
<text x="0" y="0" class="key trans tap">▽</text>
</g>
<g transform="translate(690, 230)" class="key trans keypos-25">
<rect rx="4" ry="4" x="-38" y="-38" width="77" height="77" class="key trans"/>
<text x="0" y="0" class="key trans tap">▽</text>
</g>
<g transform="translate(770, 220)" class="key keypos-26">
<rect rx="4" ry="4" x="-38" y="-38" width="77" height="77" class="key"/>
<text x="0" y="0" class="key tap">HOME</text>
</g>
<g transform="translate(850, 200)" class="key keypos-27">
<rect rx="4" ry="4" x="-38" y="-38" width="77" height="77" class="key"/>
<text x="0" y="0" class="key tap">END</text>
</g>
<g transform="translate(930, 250)" class="key keypos-28">
<rect rx="4" ry="4" x="-38" y="-38" width="77" height="77" class="key"/>
<text x="0" y="0" class="key tap">
<tspan x="0" dy="-0.5em">PAGE</tspan><tspan x="0" dy="1.0em">DOWN</tspan>
</text>
</g>
<g transform="translate(1010, 290)" class="key keypos-29">
<rect rx="4" ry="4" x="-38" y="-38" width="77" height="77" class="key"/>
<text x="0" y="0" class="key tap">
<tspan x="0" dy="-0.5em">PAGE</tspan><tspan x="0" dy="1.0em">UP</tspan>
</text>
</g>
<g transform="translate(280, 338)" class="key keypos-30">
<rect rx="4" ry="4" x="-38" y="-38" width="77" height="77" class="key"/>
</g>
<g transform="translate(360, 338)" class="key held keypos-31">
<rect rx="4" ry="4" x="-38" y="-38" width="77" height="77" class="key held"/>
</g>
<g transform="translate(440, 338)" class="key trans keypos-32">
<rect rx="4" ry="4" x="-38" y="-38" width="77" height="77" class="key trans"/>
<text x="0" y="0" class="key trans tap">▽</text>
</g>
<g transform="translate(680, 338)" class="key trans keypos-33">
<rect rx="4" ry="4" x="-38" y="-38" width="77" height="77" class="key trans"/>
<text x="0" y="0" class="key trans tap">▽</text>
</g>
<g transform="translate(760, 338)" class="key trans keypos-34">
<rect rx="4" ry="4" x="-38" y="-38" width="77" height="77" class="key trans"/>
<text x="0" y="0" class="key trans tap">▽</text>
</g>
</g>
</g>
<g transform="translate(0, 1134)" class="layer-media">
<text x="0" y="0" class="label">media:</text>
<g transform="translate(0, 0)">
<g transform="translate(40, 130)" class="key trans keypos-0">
<rect rx="4" ry="4" x="-38" y="-38" width="77" height="77" class="key trans"/>
<text x="0" y="0" class="key trans tap">▽</text>
</g>
<g transform="translate(120, 90)" class="key trans keypos-1">
<rect rx="4" ry="4" x="-38" y="-38" width="77" height="77" class="key trans"/>
<text x="0" y="0" class="key trans tap">▽</text>
</g>
<g transform="translate(200, 40)" class="key trans keypos-2">
<rect rx="4" ry="4" x="-38" y="-38" width="77" height="77" class="key trans"/>
<text x="0" y="0" class="key trans tap">▽</text>
</g>
<g transform="translate(280, 60)" class="key trans keypos-3">
<rect rx="4" ry="4" x="-38" y="-38" width="77" height="77" class="key trans"/>
<text x="0" y="0" class="key trans tap">▽</text>
</g>
<g transform="translate(360, 70)" class="key trans keypos-4">
<rect rx="4" ry="4" x="-38" y="-38" width="77" height="77" class="key trans"/>
<text x="0" y="0" class="key trans tap">▽</text>
</g>
<g transform="translate(690, 70)" class="key trans keypos-5">
<rect rx="4" ry="4" x="-38" y="-38" width="77" height="77" class="key trans"/>
<text x="0" y="0" class="key trans tap">▽</text>
</g>
<g transform="translate(770, 60)" class="key trans keypos-6">
<rect rx="4" ry="4" x="-38" y="-38" width="77" height="77" class="key trans"/>
<text x="0" y="0" class="key trans tap">▽</text>
</g>
<g transform="translate(850, 40)" class="key trans keypos-7">
<rect rx="4" ry="4" x="-38" y="-38" width="77" height="77" class="key trans"/>
<text x="0" y="0" class="key trans tap">▽</text>
</g>
<g transform="translate(930, 90)" class="key trans keypos-8">
<rect rx="4" ry="4" x="-38" y="-38" width="77" height="77" class="key trans"/>
<text x="0" y="0" class="key trans tap">▽</text>
</g>
<g transform="translate(1010, 130)" class="key trans keypos-9">
<rect rx="4" ry="4" x="-38" y="-38" width="77" height="77" class="key trans"/>
<text x="0" y="0" class="key trans tap">▽</text>
</g>
<g transform="translate(40, 210)" class="key keypos-10">
<rect rx="4" ry="4" x="-38" y="-38" width="77" height="77" class="key"/>
<text x="0" y="0" class="key tap">PREV</text>
</g>
<g transform="translate(120, 170)" class="key keypos-11">
<rect rx="4" ry="4" x="-38" y="-38" width="77" height="77" class="key"/>
<text x="0" y="0" class="key tap">
<tspan x="0" dy="-0.5em">VOL</tspan><tspan x="0" dy="1.0em">DN</tspan>
</text>
</g>
<g transform="translate(200, 120)" class="key keypos-12">
<rect rx="4" ry="4" x="-38" y="-38" width="77" height="77" class="key"/>
<text x="0" y="0" class="key tap">PP</text>
</g>
<g transform="translate(280, 140)" class="key keypos-13">
<rect rx="4" ry="4" x="-38" y="-38" width="77" height="77" class="key"/>
<text x="0" y="0" class="key tap">
<tspan x="0" dy="-0.5em">VOL</tspan><tspan x="0" dy="1.0em">UP</tspan>
</text>
</g>
<g transform="translate(360, 150)" class="key keypos-14">
<rect rx="4" ry="4" x="-38" y="-38" width="77" height="77" class="key"/>
<text x="0" y="0" class="key tap">NEXT</text>
</g>
<g transform="translate(690, 150)" class="key trans keypos-15">
<rect rx="4" ry="4" x="-38" y="-38" width="77" height="77" class="key trans"/>
<text x="0" y="0" class="key trans tap">▽</text>
</g>
<g transform="translate(770, 140)" class="key trans keypos-16">
<rect rx="4" ry="4" x="-38" y="-38" width="77" height="77" class="key trans"/>
<text x="0" y="0" class="key trans tap">▽</text>
</g>
<g transform="translate(850, 120)" class="key trans keypos-17">
<rect rx="4" ry="4" x="-38" y="-38" width="77" height="77" class="key trans"/>
<text x="0" y="0" class="key trans tap">▽</text>
</g>
<g transform="translate(930, 170)" class="key trans keypos-18">
<rect rx="4" ry="4" x="-38" y="-38" width="77" height="77" class="key trans"/>
<text x="0" y="0" class="key trans tap">▽</text>
</g>
<g transform="translate(1010, 210)" class="key trans keypos-19">
<rect rx="4" ry="4" x="-38" y="-38" width="77" height="77" class="key trans"/>
<text x="0" y="0" class="key trans tap">▽</text>
</g>
<g transform="translate(40, 290)" class="key trans keypos-20">
<rect rx="4" ry="4" x="-38" y="-38" width="77" height="77" class="key trans"/>
<text x="0" y="0" class="key trans tap">▽</text>
</g>
<g transform="translate(120, 250)" class="key trans keypos-21">
<rect rx="4" ry="4" x="-38" y="-38" width="77" height="77" class="key trans"/>
<text x="0" y="0" class="key trans tap">▽</text>
</g>
<g transform="translate(200, 200)" class="key trans keypos-22">
<rect rx="4" ry="4" x="-38" y="-38" width="77" height="77" class="key trans"/>
<text x="0" y="0" class="key trans tap">▽</text>
</g>
<g transform="translate(280, 220)" class="key trans keypos-23">
<rect rx="4" ry="4" x="-38" y="-38" width="77" height="77" class="key trans"/>
<text x="0" y="0" class="key trans tap">▽</text>
</g>
<g transform="translate(360, 230)" class="key trans keypos-24">
<rect rx="4" ry="4" x="-38" y="-38" width="77" height="77" class="key trans"/>
<text x="0" y="0" class="key trans tap">▽</text>
</g>
<g transform="translate(690, 230)" class="key trans keypos-25">
<rect rx="4" ry="4" x="-38" y="-38" width="77" height="77" class="key trans"/>
<text x="0" y="0" class="key trans tap">▽</text>
</g>
<g transform="translate(770, 220)" class="key trans keypos-26">
<rect rx="4" ry="4" x="-38" y="-38" width="77" height="77" class="key trans"/>
<text x="0" y="0" class="key trans tap">▽</text>
</g>
<g transform="translate(850, 200)" class="key trans keypos-27">
<rect rx="4" ry="4" x="-38" y="-38" width="77" height="77" class="key trans"/>
<text x="0" y="0" class="key trans tap">▽</text>
</g>
<g transform="translate(930, 250)" class="key trans keypos-28">
<rect rx="4" ry="4" x="-38" y="-38" width="77" height="77" class="key trans"/>
<text x="0" y="0" class="key trans tap">▽</text>
</g>
<g transform="translate(1010, 290)" class="key held keypos-29">
<rect rx="4" ry="4" x="-38" y="-38" width="77" height="77" class="key held"/>
</g>
<g transform="translate(280, 338)" class="key keypos-30">
<rect rx="4" ry="4" x="-38" y="-38" width="77" height="77" class="key"/>
</g>
<g transform="translate(360, 338)" class="key trans keypos-31">
<rect rx="4" ry="4" x="-38" y="-38" width="77" height="77" class="key trans"/>
<text x="0" y="0" class="key trans tap">▽</text>
</g>
<g transform="translate(440, 338)" class="key trans keypos-32">
<rect rx="4" ry="4" x="-38" y="-38" width="77" height="77" class="key trans"/>
<text x="0" y="0" class="key trans tap">▽</text>
</g>
<g transform="translate(680, 338)" class="key trans keypos-33">
<rect rx="4" ry="4" x="-38" y="-38" width="77" height="77" class="key trans"/>
<text x="0" y="0" class="key trans tap">▽</text>
</g>
<g transform="translate(760, 338)" class="key trans keypos-34">
<rect rx="4" ry="4" x="-38" y="-38" width="77" height="77" class="key trans"/>
<text x="0" y="0" class="key trans tap">▽</text>
</g>
</g>
</g>
<g transform="translate(0, 1512)" class="layer-bt_control">
<text x="0" y="0" class="label">bt_control:</text>
<g transform="translate(0, 0)">
<g transform="translate(40, 130)" class="key held keypos-0">
<rect rx="4" ry="4" x="-38" y="-38" width="77" height="77" class="key held"/>
</g>
<g transform="translate(120, 90)" class="key keypos-1">
<rect rx="4" ry="4" x="-38" y="-38" width="77" height="77" class="key"/>
</g>
<g transform="translate(200, 40)" class="key keypos-2">
<rect rx="4" ry="4" x="-38" y="-38" width="77" height="77" class="key"/>
</g>
<g transform="translate(280, 60)" class="key keypos-3">
<rect rx="4" ry="4" x="-38" y="-38" width="77" height="77" class="key"/>
</g>
<g transform="translate(360, 70)" class="key bootloader keypos-4">
<rect rx="4" ry="4" x="-38" y="-38" width="77" height="77" class="key bootloader"/>
<use href="#mdi:backup-restore" xlink:href="#mdi:backup-restore" x="-7" y="-7" height="14" width="14.0" class="key bootloader tap glyph mdi:backup-restore"/>
</g>
<g transform="translate(690, 70)" class="key bootloader keypos-5">
<rect rx="4" ry="4" x="-38" y="-38" width="77" height="77" class="key bootloader"/>
<use href="#mdi:backup-restore" xlink:href="#mdi:backup-restore" x="-7" y="-7" height="14" width="14.0" class="key bootloader tap glyph mdi:backup-restore"/>
</g>
<g transform="translate(770, 60)" class="key keypos-6">
<rect rx="4" ry="4" x="-38" y="-38" width="77" height="77" class="key"/>
</g>
<g transform="translate(850, 40)" class="key keypos-7">
<rect rx="4" ry="4" x="-38" y="-38" width="77" height="77" class="key"/>
</g>
<g transform="translate(930, 90)" class="key keypos-8">
<rect rx="4" ry="4" x="-38" y="-38" width="77" height="77" class="key"/>
<text x="0" y="0" class="key tap">
<tspan x="0" dy="-0.5em">BT</tspan><tspan x="0" dy="1.0em">CLR</tspan>
</text>
</g>
<g transform="translate(1010, 130)" class="key keypos-9">
<rect rx="4" ry="4" x="-38" y="-38" width="77" height="77" class="key"/>
</g>
<g transform="translate(40, 210)" class="key keypos-10">
<rect rx="4" ry="4" x="-38" y="-38" width="77" height="77" class="key"/>
</g>
<g transform="translate(120, 170)" class="key keypos-11">
<rect rx="4" ry="4" x="-38" y="-38" width="77" height="77" class="key"/>
</g>
<g transform="translate(200, 120)" class="key keypos-12">
<rect rx="4" ry="4" x="-38" y="-38" width="77" height="77" class="key"/>
</g>
<g transform="translate(280, 140)" class="key keypos-13">
<rect rx="4" ry="4" x="-38" y="-38" width="77" height="77" class="key"/>
</g>
<g transform="translate(360, 150)" class="key keypos-14">
<rect rx="4" ry="4" x="-38" y="-38" width="77" height="77" class="key"/>
</g>
<g transform="translate(690, 150)" class="key keypos-15">
<rect rx="4" ry="4" x="-38" y="-38" width="77" height="77" class="key"/>
<text x="0" y="0" class="key tap">
<tspan x="0" dy="-1.0em">BL</tspan><tspan x="0" dy="1.0em">PROFILE</tspan>
<tspan x="0" dy="1.0em">1</tspan>
</text>
</g>
<g transform="translate(770, 140)" class="key keypos-16">
<rect rx="4" ry="4" x="-38" y="-38" width="77" height="77" class="key"/>
<text x="0" y="0" class="key tap">
<tspan x="0" dy="-1.0em">BL</tspan><tspan x="0" dy="1.0em">PROFILE</tspan>
<tspan x="0" dy="1.0em">2</tspan>
</text>
</g>
<g transform="translate(850, 120)" class="key keypos-17">
<rect rx="4" ry="4" x="-38" y="-38" width="77" height="77" class="key"/>
<text x="0" y="0" class="key tap">
<tspan x="0" dy="-1.0em">BL</tspan><tspan x="0" dy="1.0em">PROFILE</tspan>
<tspan x="0" dy="1.0em">3</tspan>
</text>
</g>
<g transform="translate(930, 170)" class="key keypos-18">
<rect rx="4" ry="4" x="-38" y="-38" width="77" height="77" class="key"/>
</g>
<g transform="translate(1010, 210)" class="key keypos-19">
<rect rx="4" ry="4" x="-38" y="-38" width="77" height="77" class="key"/>
</g>
<g transform="translate(40, 290)" class="key keypos-20">
<rect rx="4" ry="4" x="-38" y="-38" width="77" height="77" class="key"/>
<use href="#mdi:progress-download" xlink:href="#mdi:progress-download" x="-7" y="-7" height="14" width="14.0" class="key tap glyph mdi:progress-download"/>
</g>
<g transform="translate(120, 250)" class="key keypos-21">
<rect rx="4" ry="4" x="-38" y="-38" width="77" height="77" class="key"/>
</g>
<g transform="translate(200, 200)" class="key keypos-22">
<rect rx="4" ry="4" x="-38" y="-38" width="77" height="77" class="key"/>
</g>
<g transform="translate(280, 220)" class="key keypos-23">
<rect rx="4" ry="4" x="-38" y="-38" width="77" height="77" class="key"/>
</g>
<g transform="translate(360, 230)" class="key keypos-24">
<rect rx="4" ry="4" x="-38" y="-38" width="77" height="77" class="key"/>
</g>
<g transform="translate(690, 230)" class="key keypos-25">
<rect rx="4" ry="4" x="-38" y="-38" width="77" height="77" class="key"/>
</g>
<g transform="translate(770, 220)" class="key keypos-26">
<rect rx="4" ry="4" x="-38" y="-38" width="77" height="77" class="key"/>
</g>
<g transform="translate(850, 200)" class="key keypos-27">
<rect rx="4" ry="4" x="-38" y="-38" width="77" height="77" class="key"/>
</g>
<g transform="translate(930, 250)" class="key keypos-28">
<rect rx="4" ry="4" x="-38" y="-38" width="77" height="77" class="key"/>
</g>
<g transform="translate(1010, 290)" class="key keypos-29">
<rect rx="4" ry="4" x="-38" y="-38" width="77" height="77" class="key"/>
<use href="#mdi:progress-download" xlink:href="#mdi:progress-download" x="-7" y="-7" height="14" width="14.0" class="key tap glyph mdi:progress-download"/>
</g>
<g transform="translate(280, 338)" class="key keypos-30">
<rect rx="4" ry="4" x="-38" y="-38" width="77" height="77" class="key"/>
</g>
<g transform="translate(360, 338)" class="key keypos-31">
<rect rx="4" ry="4" x="-38" y="-38" width="77" height="77" class="key"/>
</g>
<g transform="translate(440, 338)" class="key keypos-32">
<rect rx="4" ry="4" x="-38" y="-38" width="77" height="77" class="key"/>
</g>
<g transform="translate(680, 338)" class="key keypos-33">
<rect rx="4" ry="4" x="-38" y="-38" width="77" height="77" class="key"/>
</g>
<g transform="translate(760, 338)" class="key keypos-34">
<rect rx="4" ry="4" x="-38" y="-38" width="77" height="77" class="key"/>
</g>
</g>
</g>
<g transform="translate(0, 1890)" class="layer-func">
<text x="0" y="0" class="label">func:</text>
<g transform="translate(0, 0)">
<g transform="translate(40, 130)" class="key keypos-0">
<rect rx="4" ry="4" x="-38" y="-38" width="77" height="77" class="key"/>
</g>
<g transform="translate(120, 90)" class="key keypos-1">
<rect rx="4" ry="4" x="-38" y="-38" width="77" height="77" class="key"/>
<text x="0" y="0" class="key tap">F9</text>
</g>
<g transform="translate(200, 40)" class="key keypos-2">
<rect rx="4" ry="4" x="-38" y="-38" width="77" height="77" class="key"/>
<text x="0" y="0" class="key tap">F10</text>
</g>
<g transform="translate(280, 60)" class="key keypos-3">
<rect rx="4" ry="4" x="-38" y="-38" width="77" height="77" class="key"/>
<text x="0" y="0" class="key tap">F11</text>
</g>
<g transform="translate(360, 70)" class="key keypos-4">
<rect rx="4" ry="4" x="-38" y="-38" width="77" height="77" class="key"/>
<text x="0" y="0" class="key tap">F12</text>
</g>
<g transform="translate(690, 70)" class="key keypos-5">
<rect rx="4" ry="4" x="-38" y="-38" width="77" height="77" class="key"/>
</g>
<g transform="translate(770, 60)" class="key keypos-6">
<rect rx="4" ry="4" x="-38" y="-38" width="77" height="77" class="key"/>
</g>
<g transform="translate(850, 40)" class="key keypos-7">
<rect rx="4" ry="4" x="-38" y="-38" width="77" height="77" class="key"/>
</g>
<g transform="translate(930, 90)" class="key keypos-8">
<rect rx="4" ry="4" x="-38" y="-38" width="77" height="77" class="key"/>
</g>
<g transform="translate(1010, 130)" class="key keypos-9">
<rect rx="4" ry="4" x="-38" y="-38" width="77" height="77" class="key"/>
</g>
<g transform="translate(40, 210)" class="key keypos-10">
<rect rx="4" ry="4" x="-38" y="-38" width="77" height="77" class="key"/>
</g>
<g transform="translate(120, 170)" class="key keypos-11">
<rect rx="4" ry="4" x="-38" y="-38" width="77" height="77" class="key"/>
<text x="0" y="0" class="key tap">F5</text>
</g>
<g transform="translate(200, 120)" class="key keypos-12">
<rect rx="4" ry="4" x="-38" y="-38" width="77" height="77" class="key"/>
<text x="0" y="0" class="key tap">F6</text>
</g>
<g transform="translate(280, 140)" class="key keypos-13">
<rect rx="4" ry="4" x="-38" y="-38" width="77" height="77" class="key"/>
<text x="0" y="0" class="key tap">F7</text>
</g>
<g transform="translate(360, 150)" class="key keypos-14">
<rect rx="4" ry="4" x="-38" y="-38" width="77" height="77" class="key"/>
<text x="0" y="0" class="key tap">F8</text>
</g>
<g transform="translate(690, 150)" class="key keypos-15">
<rect rx="4" ry="4" x="-38" y="-38" width="77" height="77" class="key"/>
</g>
<g transform="translate(770, 140)" class="key keypos-16">
<rect rx="4" ry="4" x="-38" y="-38" width="77" height="77" class="key"/>
</g>
<g transform="translate(850, 120)" class="key keypos-17">
<rect rx="4" ry="4" x="-38" y="-38" width="77" height="77" class="key"/>
</g>
<g transform="translate(930, 170)" class="key keypos-18">
<rect rx="4" ry="4" x="-38" y="-38" width="77" height="77" class="key"/>
</g>
<g transform="translate(1010, 210)" class="key keypos-19">
<rect rx="4" ry="4" x="-38" y="-38" width="77" height="77" class="key"/>
</g>
<g transform="translate(40, 290)" class="key held keypos-20">
<rect rx="4" ry="4" x="-38" y="-38" width="77" height="77" class="key held"/>
</g>
<g transform="translate(120, 250)" class="key keypos-21">
<rect rx="4" ry="4" x="-38" y="-38" width="77" height="77" class="key"/>
<text x="0" y="0" class="key tap">F1</text>
</g>
<g transform="translate(200, 200)" class="key keypos-22">
<rect rx="4" ry="4" x="-38" y="-38" width="77" height="77" class="key"/>
<text x="0" y="0" class="key tap">F2</text>
</g>
<g transform="translate(280, 220)" class="key keypos-23">
<rect rx="4" ry="4" x="-38" y="-38" width="77" height="77" class="key"/>
<text x="0" y="0" class="key tap">F3</text>
</g>
<g transform="translate(360, 230)" class="key keypos-24">
<rect rx="4" ry="4" x="-38" y="-38" width="77" height="77" class="key"/>
<text x="0" y="0" class="key tap">F4</text>
</g>
<g transform="translate(690, 230)" class="key keypos-25">
<rect rx="4" ry="4" x="-38" y="-38" width="77" height="77" class="key"/>
</g>
<g transform="translate(770, 220)" class="key keypos-26">
<rect rx="4" ry="4" x="-38" y="-38" width="77" height="77" class="key"/>
</g>
<g transform="translate(850, 200)" class="key keypos-27">
<rect rx="4" ry="4" x="-38" y="-38" width="77" height="77" class="key"/>
</g>
<g transform="translate(930, 250)" class="key keypos-28">
<rect rx="4" ry="4" x="-38" y="-38" width="77" height="77" class="key"/>
</g>
<g transform="translate(1010, 290)" class="key keypos-29">
<rect rx="4" ry="4" x="-38" y="-38" width="77" height="77" class="key"/>
</g>
<g transform="translate(280, 338)" class="key keypos-30">
<rect rx="4" ry="4" x="-38" y="-38" width="77" height="77" class="key"/>
</g>
<g transform="translate(360, 338)" class="key keypos-31">
<rect rx="4" ry="4" x="-38" y="-38" width="77" height="77" class="key"/>
</g>
<g transform="translate(440, 338)" class="key keypos-32">
<rect rx="4" ry="4" x="-38" y="-38" width="77" height="77" class="key"/>
</g>
<g transform="translate(680, 338)" class="key keypos-33">
<rect rx="4" ry="4" x="-38" y="-38" width="77" height="77" class="key"/>
</g>
<g transform="translate(760, 338)" class="key keypos-34">
<rect rx="4" ry="4" x="-38" y="-38" width="77" height="77" class="key"/>
</g>
</g>
</g>
</svg>
